<svg xmlns="http://www.w3.org/2000/svg">
    <defs>
        <symbol id="icon" viewBox="0 0 48 48">
            <path d="M24.0001 0.666687C11.1131 0.666687 0.666748 11.113 0.666748 24C0.666748 36.887 11.1131 47.3334 24.0001 47.3334C36.8871 47.3334 47.3334 36.887 47.3334 24C47.3334 11.113 36.8871 0.666687 24.0001 0.666687ZM24.0001 7.08335C28.1884 7.08335 31.5834 10.4784 31.5834 14.6667C31.5834 18.855 28.1884 22.25 24.0001 22.25C19.8117 22.25 16.4167 18.855 16.4167 14.6667C16.4167 10.4784 19.8117 7.08335 24.0001 7.08335ZM24.0001 42.6667C17.5367 42.6667 11.8434 39.3814 8.49275 34.3904C11.1084 30.587 19.4408 28.6667 24.0001 28.6667C28.5594 28.6667 36.8918 30.587 39.5074 34.3904C36.1567 39.3814 30.4634 42.6667 24.0001 42.6667Z" />
        </symbol>
    </defs>
</svg>
