<svg xmlns="http://www.w3.org/2000/svg">
    <defs>
        <symbol id="icon" viewBox="0 0 16 16">
            <path fill-rule="evenodd" clip-rule="evenodd" d="M1.33325 8.00016C1.33325 4.31826 4.31802 1.3335 7.99992 1.3335C11.6818 1.3335 14.6666 4.31826 14.6666 8.00016C14.6666 11.6821 11.6818 14.6668 7.99992 14.6668C4.31802 14.6668 1.33325 11.6821 1.33325 8.00016ZM7.99991 9.00016C7.33324 8.00016 5.99991 4.3335 7.99991 4.3335C9.99991 4.3335 8.66658 8.00016 7.99991 9.00016ZM8.83325 10.8335C8.83325 11.2937 8.46016 11.6668 7.99992 11.6668C7.53968 11.6668 7.16659 11.2937 7.16659 10.8335C7.16659 10.3733 7.53968 10.0002 7.99992 10.0002C8.46016 10.0002 8.83325 10.3733 8.83325 10.8335Z" />
        </symbol>
    </defs>
</svg>
