<svg xmlns="http://www.w3.org/2000/svg">
    <defs>
        <symbol id="icon" viewBox="0 0 24 24">
            <path d="M12 15.9C14.1539 15.9 15.9 14.1539 15.9 12C15.9 9.84609 14.1539 8.1 12 8.1C9.8461 8.1 8.10001 9.84609 8.10001 12C8.10001 14.1539 9.8461 15.9 12 15.9Z" />
            <path fill-rule="evenodd" clip-rule="evenodd" d="M20.9339 9.18034C21.2887 9.69136 21.6217 10.1708 21.944 10.5877C22.4744 11.2738 22.9762 11.7905 23.5 12C22.9762 12.2095 22.4744 12.7262 21.944 13.4123C21.6217 13.8292 21.2887 14.3086 20.9339 14.8197C19.0855 17.4815 16.6423 21 12 21C7.35772 21 4.9145 17.4815 3.06612 14.8197C2.71127 14.3086 2.37834 13.8292 2.05599 13.4123C1.52556 12.7262 1.02375 12.2095 0.5 12C1.02375 11.7905 1.52556 11.2738 2.05599 10.5877C2.37834 10.1708 2.71127 9.69136 3.06612 9.18034C4.9145 6.51848 7.35773 3 12 3C16.6423 3 19.0855 6.51849 20.9339 9.18034ZM12 5C14.5929 5 16.329 6.42664 17.8713 8.36876C18.3893 9.02105 18.8068 9.62358 19.2329 10.2384C19.4835 10.6001 19.7372 10.9662 20.016 11.3491C20.1733 11.5651 20.3382 11.7849 20.5103 12C20.3382 12.2151 20.1733 12.4349 20.016 12.6509C19.7372 13.0338 19.4836 13.3998 19.2329 13.7615C18.8069 14.3763 18.3893 14.979 17.8713 15.6312C16.329 17.5734 14.5929 19 12 19C9.40708 19 7.671 17.5734 6.12872 15.6312C5.61073 14.979 5.1932 14.3764 4.76715 13.7616C4.51648 13.3999 4.26281 13.0338 3.98405 12.6509C3.82673 12.4349 3.66183 12.2151 3.48972 12C3.66183 11.7849 3.82673 11.5651 3.98405 11.3491C4.26282 10.9662 4.51645 10.6002 4.76713 10.2384C5.19318 9.6236 5.61073 9.02105 6.12872 8.36876C7.671 6.42664 9.40708 5 12 5Z" />
        </symbol>
    </defs>
</svg>
