<svg xmlns="http://www.w3.org/2000/svg">
    <defs>
        <symbol id="icon" viewBox="0 0 24 24">
            <path d="M20.1604 15.9178C20.4313 15.5434 20.6879 15.174 20.9339 14.8197C21.2887 14.3086 21.6217 13.8292 21.944 13.4123C22.4744 12.7262 22.9762 12.2095 23.5 12C22.9762 11.7905 22.4744 11.2738 21.944 10.5877C21.6217 10.1708 21.2887 9.69136 20.9339 9.18034C19.0855 6.51849 16.6423 3 12 3C10.5186 3 9.26107 3.35831 8.17539 3.93275L9.67975 5.4371C10.3751 5.15676 11.1405 5 12 5C14.5929 5 16.329 6.42664 17.8713 8.36876C18.3893 9.02105 18.8068 9.62358 19.2329 10.2384C19.4835 10.6001 19.7372 10.9662 20.016 11.3491C20.1733 11.5651 20.3382 11.7849 20.5103 12C20.3382 12.2151 20.1733 12.4349 20.016 12.6509C19.7374 13.0335 19.4839 13.3993 19.2335 13.7607L19.2327 13.7618C19.0654 14.0032 18.8989 14.2435 18.7276 14.4849L20.1604 15.9178Z" />
            <path fill-rule="evenodd" clip-rule="evenodd" d="M5.08287 6.49709C4.31397 7.38331 3.65941 8.32595 3.06612 9.18034C2.71127 9.69136 2.37834 10.1708 2.05599 10.5877C1.52556 11.2738 1.02375 11.7905 0.5 12C1.02375 12.2095 1.52556 12.7262 2.05599 13.4123C2.37834 13.8292 2.71127 14.3086 3.06612 14.8197C4.9145 17.4815 7.35772 21 12 21C14.315 21 16.0832 20.125 17.5034 18.9176L19.2929 20.7071L20.7071 19.2929L4.70711 3.29289L3.29289 4.70711L5.08287 6.49709ZM8.62691 10.0411C8.29189 10.6168 8.10001 11.286 8.10001 12C8.10001 14.1539 9.8461 15.9 12 15.9C12.714 15.9 13.3832 15.7081 13.9589 15.3731L16.0841 17.4983C14.9562 18.4209 13.652 19 12 19C9.40708 19 7.671 17.5734 6.12872 15.6312C5.61073 14.979 5.19308 14.3763 4.76702 13.7614C4.51638 13.3997 4.26278 13.0338 3.98405 12.6509C3.82673 12.4349 3.66183 12.2151 3.48972 12C3.66183 11.7849 3.82673 11.5651 3.98405 11.3491C4.26281 10.9662 4.51645 10.6002 4.76711 10.2384C5.19316 9.62362 5.61073 9.02105 6.12872 8.36876C6.25149 8.21417 6.37548 8.06285 6.50103 7.91525L8.62691 10.0411Z" />
        </symbol>
    </defs>
</svg>
