<svg xmlns="http://www.w3.org/2000/svg">
    <defs>
        <symbol id="icon" viewBox="0 0 48 48">
            <path fill-rule="evenodd" clip-rule="evenodd" d="M24.367 4.2689L24.1734 4.16055C22.2875 3.14924 20.0053 3.18536 18.1478 4.2689L5.54063 11.6231L5.36964 11.7269C3.73849 12.7574 2.74304 14.555 2.74304 16.4937C2.74304 18.4992 3.80832 20.3538 5.54063 21.3643L26.6921 33.7022L26.6921 33.7022C27.0292 33.8989 27.1978 33.9972 27.3831 33.9972C27.5685 33.9972 27.7371 33.8988 28.0742 33.7022L30.4499 32.3162C30.9017 32.0526 31.1276 31.9208 31.1276 31.7239C31.1276 31.5269 30.9017 31.3951 30.4499 31.1316L30.4499 31.1316L7.6137 17.8104L7.51615 17.7485C7.1057 17.4654 6.85739 16.9971 6.85739 16.4937C6.85739 15.9515 7.14537 15.4501 7.6137 15.1769L20.2209 7.82273L20.3509 7.75299C20.9663 7.45076 21.6961 7.47401 22.2939 7.82273L34.6368 15.0227L34.7524 15.0954C35.3158 15.4762 35.6574 16.1137 35.6574 16.7997V31.2734L35.6529 31.4099C35.6079 32.0884 35.2293 32.7047 34.6368 33.0503L22.2939 40.2503L22.1639 40.3201C21.5485 40.6223 20.8187 40.599 20.2209 40.2503L7.878 33.0503L7.76239 32.9776C7.19895 32.5969 6.85739 31.9593 6.85739 31.2734L6.85734 26.095C6.85733 25.7105 6.85733 25.5182 6.76623 25.3596C6.67513 25.201 6.50906 25.1042 6.17693 24.9104L3.77427 23.5089C3.31624 23.2417 3.08723 23.1081 2.91514 23.2069C2.74304 23.3058 2.74304 23.5709 2.74304 24.1012V31.2734L2.74651 31.4787C2.81669 33.5943 3.96821 35.5327 5.80493 36.6042L18.1478 43.8042L18.3414 43.9125C20.2272 44.9238 22.5095 44.8877 24.367 43.8042L36.7099 36.6042L36.8855 36.4978C38.6776 35.3711 39.7717 33.3998 39.7717 31.2734V16.7997L39.7683 16.5944C39.6981 14.4787 38.5466 12.5403 36.7099 11.4689L24.367 4.2689ZM40.9919 37.3894C40.8066 37.3894 40.638 37.4877 40.3009 37.6844L37.9251 39.0704C37.4733 39.334 37.2474 39.4658 37.2474 39.6627C37.2474 39.8596 37.4733 39.9914 37.9252 40.255L44.2262 43.9308C44.6842 44.198 44.9132 44.3316 45.0853 44.2327C45.2574 44.1339 45.2574 43.8688 45.2574 43.3385V40.5571C45.2574 40.1726 45.2574 39.9803 45.1663 39.8217C45.0752 39.6631 44.9092 39.5662 44.577 39.3725L41.683 37.6844L41.683 37.6843C41.3459 37.4877 41.1773 37.3894 40.9919 37.3894Z" />
        </symbol>
    </defs>
</svg>
