<svg xmlns="http://www.w3.org/2000/svg">
    <defs>
        <symbol id="icon" viewBox="0 0 144 87">
            <path fill-rule="evenodd" clip-rule="evenodd" d="M83.5796 37.281L70.595 50.2656L63.0229 42.6935L64.9366 40.7799L70.595 46.4384L81.666 35.3674L83.5796 37.281Z" fill="#191919"/>
            <path fill-rule="evenodd" clip-rule="evenodd" d="M40.9509 82.5663L33.7343 75.3496L32.8838 76.2001L40.1004 83.4168L40.9509 82.5663Z" />
            <path fill-rule="evenodd" clip-rule="evenodd" d="M40.9509 68.1327L33.7343 60.916L32.8838 61.7665L40.1004 68.9832L40.9509 68.1327Z" />
            <path fill-rule="evenodd" clip-rule="evenodd" d="M40.9509 53.6993L33.7343 46.4827L32.8838 47.3332L40.1004 54.5498L40.9509 53.6993Z" />
            <path fill-rule="evenodd" clip-rule="evenodd" d="M55.3831 82.5663L48.1664 75.3496L47.3159 76.2001L54.5326 83.4168L55.3831 82.5663Z" />
            <path fill-rule="evenodd" clip-rule="evenodd" d="M55.3831 68.1327L48.1664 60.916L47.3159 61.7665L54.5326 68.9832L55.3831 68.1327Z" />
            <path fill-rule="evenodd" clip-rule="evenodd" d="M55.3831 53.6993L48.1664 46.4827L47.3159 47.3332L54.5326 54.5498L55.3831 53.6993Z" />
            <path fill-rule="evenodd" clip-rule="evenodd" d="M69.8167 82.5663L62.6 75.3496L61.7495 76.2001L68.9662 83.4168L69.8167 82.5663Z" />
            <path fill-rule="evenodd" clip-rule="evenodd" d="M69.8167 68.1327L62.6 60.916L61.7495 61.7665L68.9662 68.9832L69.8167 68.1327Z" />
            <path fill-rule="evenodd" clip-rule="evenodd" d="M84.2503 82.5663L77.0336 75.3496L76.1831 76.2001L83.3998 83.4168L84.2503 82.5663Z" />
            <path fill-rule="evenodd" clip-rule="evenodd" d="M84.2503 68.1327L77.0336 60.916L76.1831 61.7665L83.3998 68.9832L84.2503 68.1327Z" />
            <path fill-rule="evenodd" clip-rule="evenodd" d="M98.6838 82.5663L91.4672 75.3496L90.6167 76.2001L97.8334 83.4168L98.6838 82.5663Z" />
            <path fill-rule="evenodd" clip-rule="evenodd" d="M98.6838 68.1327L91.4672 60.916L90.6167 61.7665L97.8334 68.9832L98.6838 68.1327Z" />
            <path fill-rule="evenodd" clip-rule="evenodd" d="M98.6838 53.6993L91.4672 46.4827L90.6167 47.3332L97.8334 54.5498L98.6838 53.6993Z" />
            <path fill-rule="evenodd" clip-rule="evenodd" d="M113.117 82.5663L105.901 75.3496L105.05 76.2001L112.267 83.4168L113.117 82.5663Z" />
            <path fill-rule="evenodd" clip-rule="evenodd" d="M113.117 68.1327L105.901 60.916L105.05 61.7665L112.267 68.9832L113.117 68.1327Z" />
            <path fill-rule="evenodd" clip-rule="evenodd" d="M113.117 53.6993L105.901 46.4827L105.05 47.3332L112.267 54.5498L113.117 53.6993Z" />
            <path fill-rule="evenodd" clip-rule="evenodd" d="M40.9509 39.2662L33.7343 32.0496L32.8838 32.9001L40.1004 40.1167L40.9509 39.2662Z" />
            <path fill-rule="evenodd" clip-rule="evenodd" d="M40.9509 24.8329L33.7343 17.6162L32.8838 18.4667L40.1004 25.6834L40.9509 24.8329Z" />
            <path fill-rule="evenodd" clip-rule="evenodd" d="M40.9509 10.3998L33.7343 3.18311L32.8838 4.0336L40.1004 11.2503L40.9509 10.3998Z" />
            <path fill-rule="evenodd" clip-rule="evenodd" d="M26.5173 82.5663L19.3007 75.3496L18.4502 76.2001L25.6669 83.4168L26.5173 82.5663Z" />
            <path fill-rule="evenodd" clip-rule="evenodd" d="M26.5173 68.1327L19.3007 60.916L18.4502 61.7665L25.6669 68.9832L26.5173 68.1327Z" />
            <path fill-rule="evenodd" clip-rule="evenodd" d="M26.5173 53.6993L19.3007 46.4827L18.4502 47.3332L25.6669 54.5498L26.5173 53.6993Z" />
            <path fill-rule="evenodd" clip-rule="evenodd" d="M26.5173 39.2662L19.3007 32.0496L18.4502 32.9001L25.6669 40.1167L26.5173 39.2662Z" />
            <path fill-rule="evenodd" clip-rule="evenodd" d="M26.5173 24.8329L19.3007 17.6162L18.4502 18.4667L25.6669 25.6834L26.5173 24.8329Z" />
            <path fill-rule="evenodd" clip-rule="evenodd" d="M26.5173 10.3998L19.3007 3.18311L18.4502 4.0336L25.6669 11.2503L26.5173 10.3998Z" />
            <path fill-rule="evenodd" clip-rule="evenodd" d="M12.0838 82.5663L4.86709 75.3496L4.0166 76.2001L11.2333 83.4168L12.0838 82.5663Z" />
            <path fill-rule="evenodd" clip-rule="evenodd" d="M12.0838 68.1327L4.86709 60.916L4.0166 61.7665L11.2333 68.9832L12.0838 68.1327Z" />
            <path fill-rule="evenodd" clip-rule="evenodd" d="M12.0838 53.6993L4.86709 46.4827L4.0166 47.3332L11.2333 54.5498L12.0838 53.6993Z" />
            <path fill-rule="evenodd" clip-rule="evenodd" d="M12.0838 39.2662L4.86709 32.0496L4.0166 32.9001L11.2333 40.1167L12.0838 39.2662Z" />
            <path fill-rule="evenodd" clip-rule="evenodd" d="M12.0838 24.8329L4.86709 17.6162L4.0166 18.4667L11.2333 25.6834L12.0838 24.8329Z" />
            <path fill-rule="evenodd" clip-rule="evenodd" d="M12.0838 10.3998L4.86709 3.18311L4.0166 4.0336L11.2333 11.2503L12.0838 10.3998Z" />
            <path fill-rule="evenodd" clip-rule="evenodd" d="M55.3831 39.2662L48.1664 32.0496L47.3159 32.9001L54.5326 40.1167L55.3831 39.2662Z" />
            <path fill-rule="evenodd" clip-rule="evenodd" d="M55.3831 24.8329L48.1664 17.6162L47.3159 18.4667L54.5326 25.6834L55.3831 24.8329Z" />
            <path fill-rule="evenodd" clip-rule="evenodd" d="M55.3831 10.3998L48.1664 3.18311L47.3159 4.0336L54.5326 11.2503L55.3831 10.3998Z" />
            <path fill-rule="evenodd" clip-rule="evenodd" d="M69.8167 24.8329L62.6 17.6162L61.7495 18.4667L68.9662 25.6834L69.8167 24.8329Z" />
            <path fill-rule="evenodd" clip-rule="evenodd" d="M69.8167 10.3998L62.6 3.18311L61.7495 4.0336L68.9662 11.2503L69.8167 10.3998Z" />
            <path fill-rule="evenodd" clip-rule="evenodd" d="M84.2503 24.8329L77.0336 17.6162L76.1831 18.4667L83.3998 25.6834L84.2503 24.8329Z" />
            <path fill-rule="evenodd" clip-rule="evenodd" d="M84.2503 10.3998L77.0336 3.18311L76.1831 4.0336L83.3998 11.2503L84.2503 10.3998Z" />
            <path fill-rule="evenodd" clip-rule="evenodd" d="M98.6838 39.2662L91.4672 32.0496L90.6167 32.9001L97.8334 40.1167L98.6838 39.2662Z" />
            <path fill-rule="evenodd" clip-rule="evenodd" d="M98.6838 24.8329L91.4672 17.6162L90.6167 18.4667L97.8334 25.6834L98.6838 24.8329Z" />
            <path fill-rule="evenodd" clip-rule="evenodd" d="M98.6838 10.3998L91.4672 3.18311L90.6167 4.0336L97.8334 11.2503L98.6838 10.3998Z" />
            <path fill-rule="evenodd" clip-rule="evenodd" d="M113.117 39.2662L105.901 32.0496L105.05 32.9001L112.267 40.1167L113.117 39.2662Z" />
            <path fill-rule="evenodd" clip-rule="evenodd" d="M113.117 24.8329L105.901 17.6162L105.05 18.4667L112.267 25.6834L113.117 24.8329Z" />
            <path fill-rule="evenodd" clip-rule="evenodd" d="M113.117 10.3998L105.901 3.18311L105.05 4.0336L112.267 11.2503L113.117 10.3998Z" />
            <path fill-rule="evenodd" clip-rule="evenodd" d="M127.55 82.5663L120.333 75.3496L119.483 76.2001L126.7 83.4168L127.55 82.5663Z" />
            <path fill-rule="evenodd" clip-rule="evenodd" d="M127.55 68.1327L120.333 60.916L119.483 61.7665L126.7 68.9832L127.55 68.1327Z" />
            <path fill-rule="evenodd" clip-rule="evenodd" d="M127.55 53.6993L120.333 46.4827L119.483 47.3332L126.7 54.5498L127.55 53.6993Z" />
            <path fill-rule="evenodd" clip-rule="evenodd" d="M127.55 39.2662L120.333 32.0496L119.483 32.9001L126.7 40.1167L127.55 39.2662Z" />
            <path fill-rule="evenodd" clip-rule="evenodd" d="M127.55 24.8329L120.333 17.6162L119.483 18.4667L126.7 25.6834L127.55 24.8329Z" />
            <path fill-rule="evenodd" clip-rule="evenodd" d="M127.55 10.3998L120.333 3.18311L119.483 4.0336L126.7 11.2503L127.55 10.3998Z" />
            <path fill-rule="evenodd" clip-rule="evenodd" d="M141.983 82.5663L134.767 75.3496L133.916 76.2001L141.133 83.4168L141.983 82.5663Z" />
            <path fill-rule="evenodd" clip-rule="evenodd" d="M141.983 68.1327L134.767 60.916L133.916 61.7665L141.133 68.9832L141.983 68.1327Z" />
            <path fill-rule="evenodd" clip-rule="evenodd" d="M141.983 53.6993L134.767 46.4827L133.916 47.3332L141.133 54.5498L141.983 53.6993Z" />
            <path fill-rule="evenodd" clip-rule="evenodd" d="M141.983 39.2662L134.767 32.0496L133.916 32.9001L141.133 40.1167L141.983 39.2662Z" />
            <path fill-rule="evenodd" clip-rule="evenodd" d="M141.983 24.8329L134.767 17.6162L133.916 18.4667L141.133 25.6834L141.983 24.8329Z" />
            <path fill-rule="evenodd" clip-rule="evenodd" d="M141.983 10.3998L134.767 3.18311L133.916 4.0336L141.133 11.2503L141.983 10.3998Z" />
        </symbol>
    </defs>
</svg>
