<svg xmlns="http://www.w3.org/2000/svg">
    <defs>
        <symbol id="icon" viewBox="0 0 144 87">
            <path d="M70.3027 43.2004L63.9512 49.5519L65.6482 51.2489L71.9997 44.8975L78.3512 51.2489L80.0483 49.5519L73.6968 43.2004L80.0483 36.8489L78.3512 35.1519L71.9997 41.5033L65.6482 35.1519L63.9512 36.8489L70.3027 43.2004Z" fill="#FF6B6B"/>
            <path fill-rule="evenodd" clip-rule="evenodd" d="M40.0241 82.3758L32.8241 75.1758L31.9756 76.0243L39.1756 83.2243L40.0241 82.3758Z" />
            <path fill-rule="evenodd" clip-rule="evenodd" d="M40.0241 67.9754L32.8241 60.7754L31.9756 61.6239L39.1756 68.8239L40.0241 67.9754Z" />
            <path fill-rule="evenodd" clip-rule="evenodd" d="M40.0241 53.576L32.8241 46.376L31.9756 47.2245L39.1756 54.4245L40.0241 53.576Z" />
            <path fill-rule="evenodd" clip-rule="evenodd" d="M54.4245 82.3758L47.2245 75.1758L46.376 76.0243L53.576 83.2243L54.4245 82.3758Z" />
            <path fill-rule="evenodd" clip-rule="evenodd" d="M54.4245 67.9754L47.2245 60.7754L46.376 61.6239L53.576 68.8239L54.4245 67.9754Z" />
            <path fill-rule="evenodd" clip-rule="evenodd" d="M54.4245 53.576L47.2245 46.376L46.376 47.2245L53.576 54.4245L54.4245 53.576Z" />
            <path fill-rule="evenodd" clip-rule="evenodd" d="M68.8244 82.3758L61.6244 75.1758L60.7759 76.0243L67.9759 83.2243L68.8244 82.3758Z" />
            <path fill-rule="evenodd" clip-rule="evenodd" d="M68.8244 67.9754L61.6244 60.7754L60.7759 61.6239L67.9759 68.8239L68.8244 67.9754Z" />
            <path fill-rule="evenodd" clip-rule="evenodd" d="M83.2243 82.3758L76.0243 75.1758L75.1758 76.0243L82.3758 83.2243L83.2243 82.3758Z" />
            <path fill-rule="evenodd" clip-rule="evenodd" d="M83.2243 67.9754L76.0243 60.7754L75.1758 61.6239L82.3758 68.8239L83.2243 67.9754Z" />
            <path fill-rule="evenodd" clip-rule="evenodd" d="M97.6247 82.3758L90.4247 75.1758L89.5762 76.0243L96.7762 83.2243L97.6247 82.3758Z" />
            <path fill-rule="evenodd" clip-rule="evenodd" d="M97.6247 67.9754L90.4247 60.7754L89.5762 61.6239L96.7762 68.8239L97.6247 67.9754Z" />
            <path fill-rule="evenodd" clip-rule="evenodd" d="M97.6247 53.576L90.4247 46.376L89.5762 47.2245L96.7762 54.4245L97.6247 53.576Z" />
            <path fill-rule="evenodd" clip-rule="evenodd" d="M112.025 82.3758L104.825 75.1758L103.976 76.0243L111.176 83.2243L112.025 82.3758Z" />
            <path fill-rule="evenodd" clip-rule="evenodd" d="M112.025 67.9754L104.825 60.7754L103.976 61.6239L111.176 68.8239L112.025 67.9754Z" />
            <path fill-rule="evenodd" clip-rule="evenodd" d="M112.025 53.576L104.825 46.376L103.976 47.2245L111.176 54.4245L112.025 53.576Z" />
            <path fill-rule="evenodd" clip-rule="evenodd" d="M40.0241 39.1756L32.8241 31.9756L31.9756 32.8241L39.1756 40.0241L40.0241 39.1756Z" />
            <path fill-rule="evenodd" clip-rule="evenodd" d="M40.0241 24.7757L32.8241 17.5757L31.9756 18.4242L39.1756 25.6242L40.0241 24.7757Z" />
            <path fill-rule="evenodd" clip-rule="evenodd" d="M40.0241 10.3758L32.8241 3.17578L31.9756 4.02431L39.1756 11.2243L40.0241 10.3758Z" />
            <path fill-rule="evenodd" clip-rule="evenodd" d="M25.6247 82.3758L18.4247 75.1758L17.5762 76.0243L24.7762 83.2243L25.6247 82.3758Z" />
            <path fill-rule="evenodd" clip-rule="evenodd" d="M25.6247 67.9754L18.4247 60.7754L17.5762 61.6239L24.7762 68.8239L25.6247 67.9754Z" />
            <path fill-rule="evenodd" clip-rule="evenodd" d="M25.6247 53.576L18.4247 46.376L17.5762 47.2245L24.7762 54.4245L25.6247 53.576Z" />
            <path fill-rule="evenodd" clip-rule="evenodd" d="M25.6247 39.1756L18.4247 31.9756L17.5762 32.8241L24.7762 40.0241L25.6247 39.1756Z" />
            <path fill-rule="evenodd" clip-rule="evenodd" d="M25.6247 24.7757L18.4247 17.5757L17.5762 18.4242L24.7762 25.6242L25.6247 24.7757Z" />
            <path fill-rule="evenodd" clip-rule="evenodd" d="M25.6247 10.3758L18.4247 3.17578L17.5762 4.02431L24.7762 11.2243L25.6247 10.3758Z" />
            <path fill-rule="evenodd" clip-rule="evenodd" d="M11.2243 82.3758L4.02431 75.1758L3.17578 76.0243L10.3758 83.2243L11.2243 82.3758Z" />
            <path fill-rule="evenodd" clip-rule="evenodd" d="M11.2243 67.9754L4.02431 60.7754L3.17578 61.6239L10.3758 68.8239L11.2243 67.9754Z" />
            <path fill-rule="evenodd" clip-rule="evenodd" d="M11.2243 53.576L4.02431 46.376L3.17578 47.2245L10.3758 54.4245L11.2243 53.576Z" />
            <path fill-rule="evenodd" clip-rule="evenodd" d="M11.2243 39.1756L4.02431 31.9756L3.17578 32.8241L10.3758 40.0241L11.2243 39.1756Z" />
            <path fill-rule="evenodd" clip-rule="evenodd" d="M11.2243 24.7757L4.02431 17.5757L3.17578 18.4242L10.3758 25.6242L11.2243 24.7757Z" />
            <path fill-rule="evenodd" clip-rule="evenodd" d="M11.2243 10.3758L4.02431 3.17578L3.17578 4.02431L10.3758 11.2243L11.2243 10.3758Z" />
            <path fill-rule="evenodd" clip-rule="evenodd" d="M54.4245 39.1756L47.2245 31.9756L46.376 32.8241L53.576 40.0241L54.4245 39.1756Z" />
            <path fill-rule="evenodd" clip-rule="evenodd" d="M54.4245 24.7757L47.2245 17.5757L46.376 18.4242L53.576 25.6242L54.4245 24.7757Z" />
            <path fill-rule="evenodd" clip-rule="evenodd" d="M54.4245 10.3758L47.2245 3.17578L46.376 4.02431L53.576 11.2243L54.4245 10.3758Z" />
            <path fill-rule="evenodd" clip-rule="evenodd" d="M68.8244 24.7757L61.6244 17.5757L60.7759 18.4242L67.9759 25.6242L68.8244 24.7757Z" />
            <path fill-rule="evenodd" clip-rule="evenodd" d="M68.8244 10.3758L61.6244 3.17578L60.7759 4.02431L67.9759 11.2243L68.8244 10.3758Z" />
            <path fill-rule="evenodd" clip-rule="evenodd" d="M83.2243 24.7757L76.0243 17.5757L75.1758 18.4242L82.3758 25.6242L83.2243 24.7757Z" />
            <path fill-rule="evenodd" clip-rule="evenodd" d="M83.2243 10.3758L76.0243 3.17578L75.1758 4.02431L82.3758 11.2243L83.2243 10.3758Z" />
            <path fill-rule="evenodd" clip-rule="evenodd" d="M97.6247 39.1756L90.4247 31.9756L89.5762 32.8241L96.7762 40.0241L97.6247 39.1756Z" />
            <path fill-rule="evenodd" clip-rule="evenodd" d="M97.6247 24.7757L90.4247 17.5757L89.5762 18.4242L96.7762 25.6242L97.6247 24.7757Z" />
            <path fill-rule="evenodd" clip-rule="evenodd" d="M97.6247 10.3758L90.4247 3.17578L89.5762 4.02431L96.7762 11.2243L97.6247 10.3758Z" />
            <path fill-rule="evenodd" clip-rule="evenodd" d="M112.025 39.1756L104.825 31.9756L103.976 32.8241L111.176 40.0241L112.025 39.1756Z" />
            <path fill-rule="evenodd" clip-rule="evenodd" d="M112.025 24.7757L104.825 17.5757L103.976 18.4242L111.176 25.6242L112.025 24.7757Z" />
            <path fill-rule="evenodd" clip-rule="evenodd" d="M112.025 10.3758L104.825 3.17578L103.976 4.02431L111.176 11.2243L112.025 10.3758Z" />
            <path fill-rule="evenodd" clip-rule="evenodd" d="M126.425 82.3758L119.225 75.1758L118.376 76.0243L125.576 83.2243L126.425 82.3758Z" />
            <path fill-rule="evenodd" clip-rule="evenodd" d="M126.425 67.9754L119.225 60.7754L118.376 61.6239L125.576 68.8239L126.425 67.9754Z" />
            <path fill-rule="evenodd" clip-rule="evenodd" d="M126.425 53.576L119.225 46.376L118.376 47.2245L125.576 54.4245L126.425 53.576Z" />
            <path fill-rule="evenodd" clip-rule="evenodd" d="M126.425 39.1756L119.225 31.9756L118.376 32.8241L125.576 40.0241L126.425 39.1756Z" />
            <path fill-rule="evenodd" clip-rule="evenodd" d="M126.425 24.7757L119.225 17.5757L118.376 18.4242L125.576 25.6242L126.425 24.7757Z" />
            <path fill-rule="evenodd" clip-rule="evenodd" d="M126.425 10.3758L119.225 3.17578L118.376 4.02431L125.576 11.2243L126.425 10.3758Z" />
            <path fill-rule="evenodd" clip-rule="evenodd" d="M140.824 82.3758L133.624 75.1758L132.776 76.0243L139.976 83.2243L140.824 82.3758Z" />
            <path fill-rule="evenodd" clip-rule="evenodd" d="M140.824 67.9754L133.624 60.7754L132.776 61.6239L139.976 68.8239L140.824 67.9754Z" />
            <path fill-rule="evenodd" clip-rule="evenodd" d="M140.824 53.576L133.624 46.376L132.776 47.2245L139.976 54.4245L140.824 53.576Z" />
            <path fill-rule="evenodd" clip-rule="evenodd" d="M140.824 39.1756L133.624 31.9756L132.776 32.8241L139.976 40.0241L140.824 39.1756Z" />
            <path fill-rule="evenodd" clip-rule="evenodd" d="M140.824 24.7757L133.624 17.5757L132.776 18.4242L139.976 25.6242L140.824 24.7757Z" />
            <path fill-rule="evenodd" clip-rule="evenodd" d="M140.824 10.3758L133.624 3.17578L132.776 4.02431L139.976 11.2243L140.824 10.3758Z" />
        </symbol>
    </defs>
</svg>
